<svg xmlns="http://www.w3.org/2000/svg" width="760" height="770" viewBox="0 0 760 770">
  <defs>
    <pattern id="weave" x="0" y="0" width="16" height="16" patternUnits="userSpaceOnUse">
      <rect width="16" height="16" fill="#1c1c1e"/>
      <rect x="0" y="0" width="8" height="7" fill="#252528" rx="1"/>
      <rect x="8" y="8" width="8" height="7" fill="#252528" rx="1"/>
      <rect x="0" y="8" width="7" height="8" fill="#202022" rx="1"/>
      <rect x="8" y="0" width="7" height="8" fill="#202022" rx="1"/>
      <line x1="0" y1="0" x2="8" y2="7" stroke="#2e2e32" stroke-width="0.4"/>
      <line x1="8" y1="8" x2="16" y2="15" stroke="#2e2e32" stroke-width="0.4"/>
    </pattern>
    <linearGradient id="topShine" x1="0%" y1="0%" x2="0%" y2="100%">
      <stop offset="0%" style="stop-color:#ffffff;stop-opacity:0.07"/>
      <stop offset="100%" style="stop-color:#000000;stop-opacity:0.1"/>
    </linearGradient>
    <linearGradient id="sideShine" x1="0%" y1="0%" x2="100%" y2="0%">
      <stop offset="0%" style="stop-color:#ffffff;stop-opacity:0.08"/>
      <stop offset="100%" style="stop-color:#000000;stop-opacity:0.15"/>
    </linearGradient>
    <filter id="dropShadow">
      <feDropShadow dx="0" dy="10" stdDeviation="20" flood-color="#000000" flood-opacity="0.45"/>
    </filter>
    <linearGradient id="pageBg" x1="0%" y1="0%" x2="100%" y2="100%">
      <stop offset="0%" style="stop-color:#f2f2f2"/>
      <stop offset="100%" style="stop-color:#e5e5e5"/>
    </linearGradient>
  </defs>
  <rect width="760" height="770" fill="url(#pageBg)"/>
  <ellipse cx="380" cy="718" rx="155" ry="16" fill="#000" opacity="0.15"/>
  <rect x="200" y="110" width="360" height="580" rx="52" ry="52" fill="url(#weave)" filter="url(#dropShadow)"/>
  <rect x="200" y="110" width="360" height="580" rx="52" ry="52" fill="url(#sideShine)"/>
  <rect x="200" y="110" width="360" height="580" rx="52" ry="52" fill="url(#topShine)"/>
  <rect x="200" y="110" width="360" height="580" rx="52" ry="52" fill="none" stroke="#3a3a3e" stroke-width="1.5"/>
  <rect x="228" y="138" width="158" height="145" rx="28" fill="#111113" stroke="#2a2a2e" stroke-width="1"/>
  
  <circle cx="295" cy="195" r="26" fill="#0a0a0c" stroke="#2c2c30" stroke-width="1.5"/>
  <circle cx="295" cy="195" r="19" fill="#050507"/>
  <circle cx="295" cy="195" r="12" fill="#0d0d10"/>
  <circle cx="295" cy="195" r="6" fill="#1a1a1e"/>
  <circle cx="290" cy="190" r="2.5" fill="#ffffff" opacity="0.12"/>
  
  <circle cx="355" cy="195" r="26" fill="#0a0a0c" stroke="#2c2c30" stroke-width="1.5"/>
  <circle cx="355" cy="195" r="19" fill="#050507"/>
  <circle cx="355" cy="195" r="12" fill="#0d0d10"/>
  <circle cx="355" cy="195" r="6" fill="#1a1a1e"/>
  <circle cx="350" cy="190" r="2.5" fill="#ffffff" opacity="0.12"/>
  
  <circle cx="325" cy="248" r="26" fill="#0a0a0c" stroke="#2c2c30" stroke-width="1.5"/>
  <circle cx="325" cy="248" r="19" fill="#050507"/>
  <circle cx="325" cy="248" r="12" fill="#0d0d10"/>
  <circle cx="325" cy="248" r="6" fill="#1a1a1e"/>
  <circle cx="320" cy="243" r="2.5" fill="#ffffff" opacity="0.12"/>
  
  <circle cx="368" cy="163" r="8" fill="#1a1a1c" stroke="#2a2a2e" stroke-width="1"/>
  <circle cx="368" cy="163" r="5" fill="#222224"/>
  <rect x="195" y="268" width="7" height="42" rx="3.5" fill="#161618" stroke="#2a2a2e" stroke-width="0.8"/>
  <rect x="195" y="322" width="7" height="65" rx="3.5" fill="#161618" stroke="#2a2a2e" stroke-width="0.8"/>
  <rect x="558" y="298" width="7" height="75" rx="3.5" fill="#161618" stroke="#2a2a2e" stroke-width="0.8"/>
  <rect x="558" y="418" width="7" height="45" rx="3.5" fill="#1e1e22" stroke="#333338" stroke-width="0.8"/>
  <text x="380" y="562" font-family="'Helvetica Neue',Arial,sans-serif" font-size="22" font-weight="300" letter-spacing="10" fill="#ffffff" text-anchor="middle" opacity="0.55">PITAKA</text>
  <line x1="318" y1="577" x2="442" y2="577" stroke="#ffffff" stroke-width="0.5" opacity="0.2"/>
  <circle cx="380" cy="622" r="30" fill="none" stroke="#333338" stroke-width="1.5" opacity="0.5"/>
  <circle cx="380" cy="622" r="22" fill="none" stroke="#2a2a2e" stroke-width="1" opacity="0.35"/>
  <rect x="353" y="672" width="54" height="10" rx="5" fill="#111113"/>
</svg>