<svg xmlns="http://www.w3.org/2000/svg" width="560" height="740" viewBox="0 0 560 740">
  <defs>
    <pattern id="wTop17" x="0" y="0" width="6" height="6" patternUnits="userSpaceOnUse">
    <rect width="6" height="6" fill="#1a1a1c"/>
    <rect x="0" y="0" width="3" height="3" fill="#2a2a2e" opacity="0.85"/>
    <rect x="3" y="3" width="3" height="3" fill="#2a2a2e" opacity="0.85"/>
  </pattern>
    <pattern id="wMid17" x="0" y="0" width="6" height="6" patternUnits="userSpaceOnUse">
    <rect width="6" height="6" fill="#6a4820"/>
    <rect x="0" y="0" width="3" height="3" fill="#b07838" opacity="0.85"/>
    <rect x="3" y="3" width="3" height="3" fill="#b07838" opacity="0.85"/>
  </pattern>
    <pattern id="wBot17" x="0" y="0" width="6" height="6" patternUnits="userSpaceOnUse">
    <rect width="6" height="6" fill="#8a3810"/>
    <rect x="0" y="0" width="3" height="3" fill="#c05820" opacity="0.85"/>
    <rect x="3" y="3" width="3" height="3" fill="#c05820" opacity="0.85"/>
  </pattern>

    <linearGradient id="grad17" x1="0" y1="0" x2="0" y2="1">
      <stop offset="0%"   stop-color="#1a1a1c"/>
      <stop offset="35%"  stop-color="#1e1e20"/>
      <stop offset="50%"  stop-color="#7a5828"/>
      <stop offset="65%"  stop-color="#9a4818"/>
      <stop offset="80%"  stop-color="#c05820"/>
      <stop offset="100%" stop-color="#1a1a1c"/>
    </linearGradient>

    <clipPath id="clip17">
      <rect x="20" y="20" width="520" height="700" rx="52" ry="52"/>
    </clipPath>

    <filter id="shadow17">
      <feDropShadow dx="0" dy="8" stdDeviation="18" flood-color="#000" flood-opacity="0.35"/>
    </filter>
  </defs>

  <rect width="560" height="740" fill="#ffffff"/>
  <rect x="20" y="20" width="520" height="700" rx="52" fill="#000" opacity="0.15" transform="translate(4,10)"/>

  <!-- Основа -->
  <rect x="20" y="20" width="520" height="700" rx="52" fill="url(#grad17)" clip-path="url(#clip17)"/>

  <!-- Плетение верх (тёмный) -->
  <rect x="20" y="20" width="520" height="296" fill="url(#wTop17)" opacity="0.6" clip-path="url(#clip17)"/>
  <!-- Плетение середина (бежевый/оранжевый) -->
  <rect x="20" y="296" width="520" height="222" fill="url(#wMid17)" opacity="0.5" clip-path="url(#clip17)"/>
  <!-- Плетение низ (тёмный) -->
  <rect x="20" y="518" width="520" height="222" fill="url(#wTop17)" opacity="0.6" clip-path="url(#clip17)"/>

  <!-- Горизонтальные полосы-переходы -->
  <rect x="20" y="273.8" width="520" height="5"  fill="#5a3818" opacity="0.8" clip-path="url(#clip17)"/>
  <rect x="20" y="284.90000000000003" width="520" height="4" fill="#7a5028" opacity="0.6" clip-path="url(#clip17)"/>
  <path d="M20,277.5 20,277.5 26,282.5 32,277.5 38,282.5 44,277.5 50,282.5 56,277.5 62,282.5 68,277.5 74,282.5 80,277.5 86,282.5 92,277.5 98,282.5 104,277.5 110,282.5 116,277.5 122,282.5 128,277.5 134,282.5 140,277.5 146,282.5 152,277.5 158,282.5 164,277.5 170,282.5 176,277.5 182,282.5 188,277.5 194,282.5 200,277.5 206,282.5 212,277.5 218,282.5 224,277.5 230,282.5 236,277.5 242,282.5 248,277.5 254,282.5 260,277.5 266,282.5 272,277.5 278,282.5 284,277.5 290,282.5 296,277.5 302,282.5 308,277.5 314,282.5 320,277.5 326,282.5 332,277.5 338,282.5 344,277.5 350,282.5 356,277.5 362,282.5 368,277.5 374,282.5 380,277.5 386,282.5 392,277.5 398,282.5 404,277.5 410,282.5 416,277.5 422,282.5 428,277.5 434,282.5 440,277.5 446,282.5 452,277.5 458,282.5 464,277.5 470,282.5 476,277.5 482,282.5 488,277.5 494,282.5 500,277.5 506,282.5 512,277.5 518,282.5 524,277.5 530,282.5 536,277.5 542,282.5 548,277.5 554,282.5 540,277.5" 
        fill="none" stroke="#3a2010" stroke-width="1.5" opacity="0.7" clip-path="url(#clip17)"/>

  <rect x="20" y="481" width="520" height="5"  fill="#5a3010" opacity="0.8" clip-path="url(#clip17)"/>
  <rect x="20" y="492.1" width="520" height="4" fill="#3a2010" opacity="0.6" clip-path="url(#clip17)"/>
  <path d="M20,484.70000000000005 20,484.70000000000005 26,489.70000000000005 32,484.70000000000005 38,489.70000000000005 44,484.70000000000005 50,489.70000000000005 56,484.70000000000005 62,489.70000000000005 68,484.70000000000005 74,489.70000000000005 80,484.70000000000005 86,489.70000000000005 92,484.70000000000005 98,489.70000000000005 104,484.70000000000005 110,489.70000000000005 116,484.70000000000005 122,489.70000000000005 128,484.70000000000005 134,489.70000000000005 140,484.70000000000005 146,489.70000000000005 152,484.70000000000005 158,489.70000000000005 164,484.70000000000005 170,489.70000000000005 176,484.70000000000005 182,489.70000000000005 188,484.70000000000005 194,489.70000000000005 200,484.70000000000005 206,489.70000000000005 212,484.70000000000005 218,489.70000000000005 224,484.70000000000005 230,489.70000000000005 236,484.70000000000005 242,489.70000000000005 248,484.70000000000005 254,489.70000000000005 260,484.70000000000005 266,489.70000000000005 272,484.70000000000005 278,489.70000000000005 284,484.70000000000005 290,489.70000000000005 296,484.70000000000005 302,489.70000000000005 308,484.70000000000005 314,489.70000000000005 320,484.70000000000005 326,489.70000000000005 332,484.70000000000005 338,489.70000000000005 344,484.70000000000005 350,489.70000000000005 356,484.70000000000005 362,489.70000000000005 368,484.70000000000005 374,489.70000000000005 380,484.70000000000005 386,489.70000000000005 392,484.70000000000005 398,489.70000000000005 404,484.70000000000005 410,489.70000000000005 416,484.70000000000005 422,489.70000000000005 428,484.70000000000005 434,489.70000000000005 440,484.70000000000005 446,489.70000000000005 452,484.70000000000005 458,489.70000000000005 464,484.70000000000005 470,489.70000000000005 476,484.70000000000005 482,489.70000000000005 488,484.70000000000005 494,489.70000000000005 500,484.70000000000005 506,489.70000000000005 512,484.70000000000005 518,489.70000000000005 524,484.70000000000005 530,489.70000000000005 536,484.70000000000005 542,489.70000000000005 548,484.70000000000005 554,489.70000000000005 540,484.70000000000005" 
        fill="none" stroke="#2a1808" stroke-width="1.5" opacity="0.7" clip-path="url(#clip17)"/>

  <!-- Рамка чехла — оранжевая -->
  <rect x="20" y="20" width="520" height="700" rx="52" fill="none" stroke="#c86820" stroke-width="3"/>

  <!-- Блок камеры — оранжевая рамка, шире для 17 Pro -->
  <rect x="45" y="50" width="245" height="215" rx="40" fill="#c86820" stroke="#d07828" stroke-width="1"/>
  <rect x="49" y="54" width="237" height="207" rx="37" fill="#1a1a1a"/>

  <!-- 3 камеры -->
  <circle cx="123" cy="128" r="54" fill="#0d0d0d" stroke="#2a2a2a" stroke-width="1.5"/>
  <circle cx="123" cy="128" r="40" fill="#080808"/>
  <circle cx="123" cy="128" r="24" fill="#0f0f12"/>
  <circle cx="123" cy="128" r="11" fill="#1a1a1e"/>
  <circle cx="107" cy="112" r="5" fill="#fff" opacity="0.1"/>

  <circle cx="223" cy="128" r="54" fill="#0d0d0d" stroke="#2a2a2a" stroke-width="1.5"/>
  <circle cx="223" cy="128" r="40" fill="#080808"/>
  <circle cx="223" cy="128" r="24" fill="#0f0f12"/>
  <circle cx="223" cy="128" r="11" fill="#1a1a1e"/>
  <circle cx="207" cy="112" r="5" fill="#fff" opacity="0.1"/>

  <circle cx="173" cy="218" r="46" fill="#0d0d0d" stroke="#2a2a2a" stroke-width="1.5"/>
  <circle cx="173" cy="218" r="34" fill="#080808"/>
  <circle cx="173" cy="218" r="20" fill="#0f0f12"/>
  <circle cx="173" cy="218" r="9" fill="#1a1a1e"/>

  <!-- Вспышка + LiDAR -->
  <circle cx="255" cy="215" r="13" fill="#1a1a1a" stroke="#333" stroke-width="1"/>
  <circle cx="255" cy="215" r="8" fill="#222"/>
  <circle cx="255" cy="245" r="8" fill="#1a1a1a" stroke="#333" stroke-width="1"/>

  <!-- Логотип PITAKA -->
  <text x="280" y="660" 
        font-family="'Helvetica Neue',Arial,sans-serif" 
        font-size="20" font-weight="400" letter-spacing="8"
        fill="#c86820" text-anchor="middle" opacity="0.9">PITAKA</text>

  <!-- Кнопки — оранжевые -->
  <rect x="14" y="200" width="8" height="45" rx="4" fill="#b05818" stroke="#c86820" stroke-width="0.5"/>
  <rect x="14" y="260" width="8" height="70" rx="4" fill="#b05818" stroke="#c86820" stroke-width="0.5"/>
  <rect x="538" y="220" width="8" height="80" rx="4" fill="#b05818" stroke="#c86820" stroke-width="0.5"/>
  <!-- Camera Control -->
  <rect x="538" y="330" width="8" height="50" rx="4" fill="#b05818" stroke="#c86820" stroke-width="0.5"/>
</svg>